<?xml version="1.0" encoding="utf-8"?>
<!-- Generator: Adobe Illustrator 21.1.0, SVG Export Plug-In . SVG Version: 6.00 Build 0)  -->
<svg version="1.1" id="Layer_1" xmlns="http://www.w3.org/2000/svg" xmlns:xlink="http://www.w3.org/1999/xlink" x="0px" y="0px"
	 viewBox="0 0 220.5 53" style="enable-background:new 0 0 220.5 53;" xml:space="preserve">
<style type="text/css">
	.st0{fill:#FFFFFF;}
	.st1{fill:#019CDB;}
	.st2{fill:url(#SVGID_1_);}
	.st3{fill:#E33249;}
	.st4{fill:#151278;}
	.st5{fill:url(#SVGID_2_);}
	.st6{fill:url(#SVGID_3_);}
	.st7{fill:url(#SVGID_4_);}
	.st8{opacity:0.4;}
	.st9{fill:#0D80BF;}
	.st10{fill:#C4D600;}
	.st11{fill:#AA00EF;}
	.st12{fill:#00ADEF;}
	.st13{fill:#008FD5;}
	.st14{fill:#7E8080;}
	.st15{clip-path:url(#SVGID_17_);fill:url(#SVGID_18_);}
	.st16{clip-path:url(#SVGID_17_);}
	.st17{clip-path:url(#SVGID_20_);}
	.st18{clip-path:url(#SVGID_22_);fill:url(#SVGID_23_);}
	.st19{clip-path:url(#SVGID_25_);fill:url(#SVGID_26_);}
	.st20{clip-path:url(#SVGID_28_);fill:url(#SVGID_29_);}
	.st21{clip-path:url(#SVGID_31_);fill:url(#SVGID_32_);}
	.st22{clip-path:url(#SVGID_34_);fill:url(#SVGID_35_);}
	.st23{clip-path:url(#SVGID_37_);fill:url(#SVGID_38_);}
	.st24{clip-path:url(#SVGID_40_);fill:url(#SVGID_41_);}
	.st25{clip-path:url(#SVGID_43_);fill:url(#SVGID_44_);}
	.st26{clip-path:url(#SVGID_46_);fill:url(#SVGID_47_);}
	.st27{clip-path:url(#SVGID_49_);fill:url(#SVGID_50_);}
	.st28{clip-path:url(#SVGID_52_);fill:url(#SVGID_53_);}
	.st29{clip-path:url(#SVGID_55_);fill:url(#SVGID_56_);}
	.st30{clip-path:url(#SVGID_58_);fill:url(#SVGID_59_);}
	.st31{clip-path:url(#SVGID_61_);fill:url(#SVGID_62_);}
	.st32{clip-path:url(#SVGID_64_);fill:url(#SVGID_65_);}
	.st33{clip-path:url(#SVGID_67_);fill:url(#SVGID_68_);}
	.st34{clip-path:url(#SVGID_70_);fill:url(#SVGID_71_);}
	.st35{clip-path:url(#SVGID_73_);fill:url(#SVGID_74_);}
	.st36{clip-path:url(#SVGID_76_);fill:url(#SVGID_77_);}
	.st37{clip-path:url(#SVGID_79_);fill:url(#SVGID_80_);}
	.st38{clip-path:url(#SVGID_82_);fill:url(#SVGID_83_);}
	.st39{clip-path:url(#SVGID_85_);fill:url(#SVGID_86_);}
	.st40{clip-path:url(#SVGID_88_);fill:url(#SVGID_89_);}
	.st41{clip-path:url(#SVGID_91_);fill:url(#SVGID_92_);}
	.st42{clip-path:url(#SVGID_94_);fill:url(#SVGID_95_);}
	.st43{clip-path:url(#SVGID_97_);fill:url(#SVGID_98_);}
	.st44{clip-path:url(#SVGID_100_);fill:url(#SVGID_101_);}
	.st45{clip-path:url(#SVGID_103_);fill:url(#SVGID_104_);}
	.st46{clip-path:url(#SVGID_106_);fill:url(#SVGID_107_);}
	.st47{clip-path:url(#SVGID_109_);fill:url(#SVGID_110_);}
	.st48{clip-path:url(#SVGID_112_);fill:url(#SVGID_113_);}
	.st49{clip-path:url(#SVGID_115_);fill:url(#SVGID_116_);}
	.st50{clip-path:url(#SVGID_118_);fill:url(#SVGID_119_);}
	.st51{clip-path:url(#SVGID_121_);fill:url(#SVGID_122_);}
	.st52{clip-path:url(#SVGID_124_);fill:url(#SVGID_125_);}
	.st53{fill:#D4DA43;}
	.st54{clip-path:url(#SVGID_127_);}
	.st55{fill:url(#XMLID_15_);fill-opacity:0.3;}
	.st56{opacity:0.41;}
	.st57{fill:#0086C4;}
	.st58{fill:#FAB500;}
	.st59{clip-path:url(#SVGID_129_);}
	.st60{opacity:0.1;}
	.st61{fill:#00963E;}
	.st62{fill:url(#SVGID_133_);}
	.st63{fill:url(#SVGID_134_);}
	.st64{fill:#006131;}
	.st65{fill:#911D27;}
	.st66{fill:#E1403B;}
	.st67{fill:#F09A44;}
	.st68{fill:#ED9B62;}
	.st69{fill:url(#SVGID_135_);}
	.st70{fill:url(#SVGID_136_);}
	.st71{fill:url(#SVGID_137_);}
	.st72{fill:url(#SVGID_138_);}
</style>
<g>
	<g id="XMLID_19_">
		<defs>
			<path id="XMLID_23_" d="M90.5,26.5C90.5,41.2,102,53,116.2,53c13.1,0,23.9-10.1,25.5-23.2c0-0.1,0-0.2,0-0.3
				c0-1.3-0.9-2.4-2.2-2.6c-0.1,0-0.2,0-0.3,0c-1.2,0-2.3,0.9-2.5,2.3c-1.3,10.5-10,18.7-20.5,18.7h0c-5.7,0-10.9-2.4-14.6-6.2
				c-3.7-3.9-6.1-9.2-6.1-15.1v0L90.5,26.5z"/>
		</defs>
		<linearGradient id="XMLID_6_" gradientUnits="userSpaceOnUse" x1="93.5784" y1="39.7641" x2="140.1636" y2="39.7641">
			<stop  offset="0" style="stop-color:#019CDB"/>
			<stop  offset="1" style="stop-color:#019CDB;stop-opacity:0.1"/>
		</linearGradient>
		<use xlink:href="#XMLID_23_"  style="overflow:visible;fill:url(#XMLID_6_);"/>
		<clipPath id="XMLID_8_">
			<use xlink:href="#XMLID_23_"  style="overflow:visible;"/>
		</clipPath>
	</g>
	<g id="XMLID_10_">
		<defs>
			<path id="XMLID_11_" d="M115.9,0c-14.1,0.2-25.4,11.9-25.4,26.5v0.1h5v-0.1c0-5.9,2.3-11.2,6.1-15.1c3.8-3.9,8.9-6.2,14.6-6.2h0
				c10.5,0,19.2,8.1,20.5,18.6c0,0.1,0,0.1,0,0.1c0.2,1.3,1.2,2.3,2.5,2.3c0.1,0,0.2,0,0.3,0c1.3-0.2,2.2-1.3,2.2-2.5
				c0-0.1,0-0.2,0-0.3c0-0.1,0-0.1,0-0.2c-1.6-13-12.2-23-25.2-23.1H115.9z"/>
		</defs>
		<use xlink:href="#XMLID_11_"  style="overflow:visible;fill:#019CDB;"/>
		<clipPath id="XMLID_9_">
			<use xlink:href="#XMLID_11_"  style="overflow:visible;"/>
		</clipPath>
	</g>
	<g>
		<path class="st1" d="M23.2,26.5L23.2,26.5c0-3.1,2.3-5.5,5.4-5.5c2.1,0,3.4,0.9,4.3,2.2l-2.1,1.7c-0.6-0.8-1.3-1.2-2.2-1.2
			c-1.4,0-2.4,1.3-2.4,2.8v0c0,1.6,1,2.8,2.4,2.8c1.1,0,1.7-0.5,2.3-1.3l2.1,1.6c-1,1.4-2.3,2.4-4.5,2.4
			C25.6,32,23.2,29.6,23.2,26.5z"/>
		<path class="st1" d="M33.6,26.5L33.6,26.5c0-3.1,2.4-5.5,5.5-5.5c3.2,0,5.5,2.4,5.5,5.5v0c0,3-2.4,5.5-5.5,5.5
			C36,32,33.6,29.5,33.6,26.5z M41.8,26.5L41.8,26.5c0-1.6-1.1-2.9-2.6-2.9c-1.5,0-2.6,1.3-2.6,2.8v0c0,1.5,1.1,2.9,2.6,2.9
			C40.7,29.3,41.8,28,41.8,26.5z"/>
		<path class="st1" d="M48.2,28.2c0.1,1.2,0.8,1.6,1.9,1.6c0.8,0,1.6-0.3,1.6-1.1c0-0.9-1.4-1.1-2.9-1.5c-1.4-0.4-3-1.1-3-3
			c0-2.3,2.2-3.2,4.1-3.2c2,0,4,1,4,3.4h-2.6c0-1-0.8-1.3-1.6-1.3c-0.6,0-1.3,0.2-1.3,0.9c0,0.8,1.5,1,2.9,1.4
			c1.5,0.4,2.9,1.1,2.9,3c0,2.6-2.2,3.5-4.4,3.5c-2.3,0-4.4-1-4.4-3.7H48.2z"/>
		<path class="st1" d="M59.1,21.1h2.7l4.4,10.6h-3l-0.7-1.9h-4l-0.7,1.9h-3L59.1,21.1z M61.6,27.6l-1.1-3l-1.2,3H61.6z"/>
		<path class="st1" d="M67.2,21.2h4.4c2.6,0,4.3,1.4,4.3,3.7v0c0,2.5-1.9,3.8-4.4,3.8h-1.4v3h-2.8V21.2z M71.4,26.4
			c1,0,1.6-0.5,1.6-1.4v0c0-0.9-0.6-1.4-1.6-1.4h-1.3v2.8H71.4z"/>
		<path class="st1" d="M77.1,21.2H80v10.6h-2.9V21.2z"/>
		<g>
			<path class="st1" d="M0,33.8h0.9v8.4H0V33.8z"/>
			<path class="st1" d="M3.2,33.8h0.9l5.1,6.7v-6.7h0.9v8.4H9.3l-5.2-6.8v6.8H3.2V33.8z"/>
			<path class="st1" d="M12.3,33.8h0.9l3,4.6l3-4.6h0.9v8.4h-0.9v-6.8l-3,4.5h0l-3-4.5v6.8h-0.9V33.8z"/>
			<path class="st1" d="M21.6,38L21.6,38c0-2.3,1.7-4.3,4.1-4.3c2.5,0,4.1,2,4.1,4.3c0,0,0,0,0,0c0,2.3-1.7,4.3-4.1,4.3
				C23.3,42.3,21.6,40.3,21.6,38z M28.9,38L28.9,38c0-1.9-1.3-3.5-3.2-3.5c-1.9,0-3.2,1.5-3.2,3.4v0c0,1.9,1.3,3.4,3.2,3.4
				C27.6,41.5,28.9,39.9,28.9,38z"/>
			<path class="st1" d="M31.5,33.8H35c0.9,0,1.7,0.3,2.1,0.7c0.3,0.4,0.5,0.8,0.5,1.3v0c0,1.1-0.6,1.6-1.3,1.9c1,0.3,1.7,0.9,1.7,2
				v0c0,1.4-1.2,2.3-2.9,2.3h-3.6V33.8z M34.8,37.6c1.1,0,1.9-0.5,1.9-1.5v0c0-0.8-0.6-1.4-1.8-1.4h-2.5v2.9H34.8z M35.1,41.3
				c1.2,0,2-0.6,2-1.5v0c0-0.9-0.7-1.4-2.2-1.4h-2.6v2.9H35.1z"/>
			<path class="st1" d="M39.9,33.8h0.9v8.4h-0.9V33.8z"/>
			<path class="st1" d="M43.1,33.8H44v7.5h4.6v0.9h-5.5V33.8z"/>
			<path class="st1" d="M50.1,33.8H51v8.4h-0.9V33.8z"/>
			<path class="st1" d="M56.3,33.8h0.9l3.7,8.4h-1L58.9,40h-4.4l-1,2.2h-0.9L56.3,33.8z M58.5,39.1l-1.8-4.3l-1.9,4.3H58.5z"/>
			<path class="st1" d="M62.2,33.8h3.5c1,0,1.8,0.3,2.3,0.8c0.4,0.4,0.6,1,0.6,1.6v0c0,1.4-0.9,2.2-2.2,2.4l2.5,3.4h-1.1l-2.3-3.2h0
				h-2.3v3.2h-0.9V33.8z M65.6,38.1c1.2,0,2.1-0.6,2.1-1.7v0c0-1-0.8-1.6-2.1-1.6h-2.5v3.4H65.6z"/>
			<path class="st1" d="M70.5,33.8h0.9v8.4h-0.9V33.8z"/>
			<path class="st1" d="M76.7,33.8h0.9l3.7,8.4h-1L79.3,40h-4.4l-1,2.2H73L76.7,33.8z M79,39.1l-1.8-4.3l-1.9,4.3H79z"/>
		</g>
		<g>
			<path class="st1" d="M150.4,23.4h1l2.9,7.2l2.9-7.2h1l-3.5,8.4h-0.8L150.4,23.4z"/>
			<path class="st1" d="M159.5,23.4h0.9v8.4h-0.9V23.4z"/>
			<path class="st1" d="M161.8,23.4h1l2.9,7.2l2.9-7.2h1l-3.5,8.4h-0.8L161.8,23.4z"/>
			<path class="st1" d="M170.6,23.4h5.9v0.9h-4.9v2.9h4.4V28h-4.4v2.9h5v0.9h-5.9V23.4z"/>
			<path class="st1" d="M181.6,23.4h5.9v0.9h-4.9v2.9h4.4V28h-4.4v2.9h5v0.9h-5.9V23.4z"/>
			<path class="st1" d="M189.3,23.4h0.9l5.1,6.7v-6.7h0.9v8.4h-0.7l-5.2-6.8v6.8h-0.9V23.4z"/>
			<path class="st1" d="M150.7,38L150.7,38c0-2.4,1.7-4.3,4.1-4.3c1.5,0,2.3,0.5,3.2,1.3l-0.6,0.7c-0.7-0.7-1.4-1.1-2.5-1.1
				c-1.8,0-3.1,1.5-3.1,3.4v0c0,1.9,1.4,3.4,3.1,3.4c1.1,0,1.8-0.4,2.6-1.2l0.6,0.6c-0.8,0.9-1.8,1.5-3.2,1.5
				C152.5,42.3,150.7,40.4,150.7,38z"/>
			<path class="st1" d="M159,38L159,38c0-2.3,1.7-4.3,4.1-4.3c2.5,0,4.1,2,4.1,4.3c0,0,0,0,0,0c0,2.3-1.7,4.3-4.1,4.3
				C160.6,42.3,159,40.3,159,38z M166.3,38L166.3,38c0-1.9-1.3-3.5-3.2-3.5s-3.2,1.5-3.2,3.4v0c0,1.9,1.3,3.4,3.2,3.4
				S166.3,39.9,166.3,38z"/>
			<path class="st1" d="M168.8,33.8h0.9l5.1,6.7v-6.7h0.9v8.4h-0.7l-5.2-6.8v6.8h-0.9V33.8z"/>
			<path class="st1" d="M177.7,33.8h5.8v0.9h-4.9v3h4.4v0.9h-4.4v3.6h-0.9V33.8z"/>
			<path class="st1" d="M185.3,33.8h0.9v8.4h-0.9V33.8z"/>
			<path class="st1" d="M191.1,33.8h0.9l3.7,8.4h-1l-0.9-2.2h-4.4l-1,2.2h-0.9L191.1,33.8z M193.3,39.1l-1.8-4.3l-1.9,4.3H193.3z"/>
			<path class="st1" d="M196.6,33.8h0.9l5.1,6.7v-6.7h0.9v8.4h-0.7l-5.2-6.8v6.8h-0.9V33.8z"/>
			<path class="st1" d="M204.9,41.6l5.2-6.9h-5.1v-0.8h6.3v0.6l-5.3,6.9h5.3v0.8h-6.5V41.6z"/>
			<path class="st1" d="M215.9,33.8h0.9l3.7,8.4h-1l-0.9-2.2h-4.4l-1,2.2h-0.9L215.9,33.8z M218.2,39.1l-1.8-4.3l-1.9,4.3H218.2z"/>
		</g>
	</g>
</g>
</svg>
